<?xml version="1.0" encoding="UTF-8"?><svg xmlns="http://www.w3.org/2000/svg" xmlns:xlink="http://www.w3.org/1999/xlink" viewBox="0 0 160 160"><defs><style>.cls-1{fill:none;}.cls-2{fill:url(#linear-gradient);}.cls-3{fill:#ece81a;}.cls-4{fill:#0f0d14;}</style><linearGradient id="linear-gradient" x1="54.68" y1="10.44" x2="105.32" y2="149.56" gradientUnits="userSpaceOnUse"><stop offset="0" stop-color="#e6f1f2"/><stop offset="1" stop-color="#b8c7cc"/></linearGradient></defs><g id="base"><path class="cls-3" d="M80,2c43.01,0,78,34.99,78,78s-34.99,78-78,78S2,123.01,2,80,36.99,2,80,2m0-2C35.82,0,0,35.82,0,80s35.82,80,80,80,80-35.82,80-80S124.18,0,80,0h0Z"/><circle class="cls-2" cx="80" cy="80" r="74"/></g><g id="icons"><g><rect class="cls-1" x="32" y="32" width="96" height="96"/><g><path class="cls-4" d="M120.24,76.47c-1.95-22.25-21.63-38.75-43.88-36.82-14.09,1.23-26.45,9.75-32.7,22.37l-4.85-1.55,2.94,13.45,10.18-9.27-4.73-1.51c5.76-11.2,16.87-18.73,29.48-19.84,9.81-.85,19.34,2.15,26.88,8.47,7.53,6.32,12.15,15.2,13.01,25,.86,9.8-2.15,19.34-8.47,26.87-6.32,7.53-15.2,12.15-25,13.01-16.87,1.47-32.47-8.67-37.98-24.68l-3.48,1.2c5.67,16.47,21.07,27.31,38.22,27.31,1.18,0,2.37-.05,3.56-.16,22.25-1.95,38.76-21.63,36.82-43.87Z"/><g><path class="cls-4" d="M70.1,74.8c-2.91,0-5.25,1.16-6.68,3.28v-6.03c0-4.16,1.56-6.01,5.07-6.01,3.26,0,4.91,1.78,4.91,5.28v.67h4.46v-.56c0-6.15-3.45-9.67-9.47-9.67-6.39,0-9.63,3.41-9.63,10.14v16.47c0,6.28,3.51,9.88,9.63,9.88s9.68-3.6,9.68-9.88v-4.21c0-6.12-2.75-9.35-7.96-9.35Zm3.24,13.78c0,3.57-1.67,5.38-4.96,5.38s-4.96-1.81-4.96-5.38v-3.63c0-3.56,2.05-5.86,5.22-5.86s4.7,1.79,4.7,5.49v4Z"/><path class="cls-4" d="M91.62,61.75c-6.24,0-9.68,3.53-9.68,9.93v16.63c0,6.31,3.53,9.93,9.68,9.93s9.63-3.53,9.63-9.93v-16.63c0-6.41-3.42-9.93-9.63-9.93Zm-4.96,9.67c0-3.57,1.67-5.38,4.96-5.38s4.96,1.81,4.96,5.38v17.16c0,3.57-1.67,5.38-4.96,5.38s-4.96-1.81-4.96-5.38v-17.16Z"/></g></g></g></g></svg>