<?xml version="1.0" encoding="UTF-8"?><svg xmlns="http://www.w3.org/2000/svg" xmlns:xlink="http://www.w3.org/1999/xlink" viewBox="0 0 160 160"><defs><style>.cls-1{fill:none;}.cls-2{fill:url(#linear-gradient);}.cls-3{fill:#ece81a;}.cls-4{fill:#0f0d14;}</style><linearGradient id="linear-gradient" x1="54.68" y1="10.44" x2="105.32" y2="149.56" gradientUnits="userSpaceOnUse"><stop offset="0" stop-color="#e6f1f2"/><stop offset="1" stop-color="#b8c7cc"/></linearGradient></defs><g id="base"><path class="cls-3" d="M80,2c43.01,0,78,34.99,78,78s-34.99,78-78,78S2,123.01,2,80,36.99,2,80,2m0-2C35.82,0,0,35.82,0,80s35.82,80,80,80,80-35.82,80-80S124.18,0,80,0h0Z"/><circle class="cls-2" cx="80" cy="80" r="74"/></g><g id="icons"><g><rect class="cls-1" x="32" y="32" width="96" height="96"/><g><path class="cls-4" d="M118.72,71.67c-1.39-1.71-3.46-2.83-5.72-3.12-1.42-18.34-15.12-31.8-32.99-31.8s-31.57,13.47-32.99,31.8c-2.26,.29-4.33,1.4-5.72,3.12-1.36,1.68-1.97,3.75-1.73,5.85l1.43,12.64c.47,4.19,4.24,7.32,8.61,7.32,.3,0,.6-.01,.9-.04l4.52-.44c.76-.07,1.47-.37,2.07-.81,1.06,2.18,2.51,4.19,4.29,5.92l4.32,4.18c2.11,2.05,4.39,3.55,6.77,4.48,2.45,.95,5,1.42,7.53,1.42,5.17,0,10.23-1.95,14.02-5.61l4.62-4.48c1.78-1.72,3.23-3.73,4.29-5.92,.6,.44,1.31,.73,2.07,.81l1.05,.1c-1.25,5.13-3.88,9.86-7.65,13.59-3.03,3-7.03,5.38-11.13,6.82-.22-.93-.85-1.62-1.62-1.62h-11.28c-.95,0-1.72,1.03-1.72,2.3v2.77c0,1.27,.77,2.3,1.72,2.3h11.28c.84,0,1.5-.81,1.66-1.87,5.02-1.54,9.93-4.37,13.68-8.07,4.39-4.34,7.4-9.87,8.75-15.86,.23,.02,.46,.03,.69,.03,4.37,0,8.14-3.13,8.61-7.32l1.43-12.64c.24-2.1-.38-4.18-1.73-5.85Zm-64.07,21.66l-4.52,.44c-2.73,.28-5.21-1.54-5.49-4.03l-1.43-12.64c-.12-1.11,.21-2.22,.94-3.12,.83-1.02,2.1-1.68,3.48-1.82l4.52-.44c.28-.03,.48,.13,.49,.26l2.33,21.2s-.13,.14-.33,.16Zm-1.06-25.05c-.56-.2-1.17-.29-1.8-.23l-1.07,.1c1.56-16.04,13.62-27.73,29.27-27.73s27.71,11.7,29.27,27.73l-1.07-.1c-.63-.07-1.24,.02-1.8,.22-1.81-12.59-12.94-22.33-26.41-22.33s-24.61,9.74-26.41,22.33Zm47.65,20.61c-.41,3.98-2.25,7.73-5.17,10.56l-4.62,4.48c-4.6,4.46-11.53,5.8-17.65,3.41-1.92-.75-3.79-1.99-5.54-3.7l-4.32-4.18c-2.93-2.83-4.76-6.59-5.17-10.57l-1.7-16.45c5.09-2.11,9.4-5.72,12.36-10.41,6.84,7.92,16.66,12.44,27.15,12.44,2.09,0,4.17-.18,6.22-.54l-1.54,14.96Zm1.74-16.88c-2.11,.4-4.26,.61-6.42,.61-10.36,0-20.04-4.65-26.56-12.76l-.85-1.06-.67,1.18c-2.63,4.65-6.63,8.27-11.43,10.43,.77-11.59,10.74-20.8,22.94-20.8s22.96,9.92,23.01,22.13l-.03,.26Zm13.81,5.08l-1.43,12.64c-.28,2.49-2.75,4.3-5.49,4.03l-4.52-.44c-.2-.02-.29-.12-.37-.29l2.38-21.06c.01-.12,.18-.26,.43-.26,.02,0,.04,0,.06,0l4.52,.44c1.39,.14,2.66,.8,3.48,1.82,.73,.9,1.06,2.01,.94,3.12Z"/><path class="cls-4" d="M71.95,99.38c1.87,2.19,4.76,3.63,8.05,3.63s6.19-1.44,8.05-3.63c-2.57-.63-5.26-1-8.05-1s-5.48,.37-8.05,1Z"/><path class="cls-4" d="M80,94.33h0c1.46,0,5.42-2.42,5.42-2.42l-1.23-1.05h-8.38l-1.23,1.05s3.97,2.42,5.42,2.42Z"/><path class="cls-4" d="M84.6,84.18l3.2-1.83h10.61c-1.15-2.97-3.7-5.07-6.65-5.11-2.97-.04-6.06,3.96-7.15,6.94Z"/><path class="cls-4" d="M75.4,84.18c-1.1-2.98-4.18-6.98-7.15-6.94-2.95,.04-5.5,2.14-6.66,5.11h10.61l3.2,1.83Z"/></g></g></g></svg>