<svg xmlns="http://www.w3.org/2000/svg" viewBox="0 0 160 160"><defs><linearGradient id="linear-gradient" x1="54.68" y1="10.44" x2="105.32" y2="149.56" gradientUnits="userSpaceOnUse"><stop offset="0" stop-color="#e6f1f2"/><stop offset="1" stop-color="#b8c7cc"/></linearGradient><style>.cls-4{fill:#0f0d14}</style></defs><g id="base"><path d="M80 2c43.01 0 78 34.99 78 78s-34.99 78-78 78S2 123.01 2 80 36.99 2 80 2m0-2C35.82 0 0 35.82 0 80s35.82 80 80 80 80-35.82 80-80S124.18 0 80 0Z" style="fill:#ece81a"/><circle cx="80" cy="80" r="74" style="fill:url(#linear-gradient)"/></g><g id="icons"><path style="fill:none" d="M32 32h96v96H32z"/><path class="cls-4" d="M72.15 46.41c1.05.82 2.3 1.34 3.62 1.34h.09c-2.28-3.25-5.99-5.38-10.2-5.38s-7.92 2.13-10.2 5.38h.09c1.33 0 2.58-.52 3.62-1.34 1.8-1.41 4.05-2.25 6.48-2.25s4.68.84 6.48 2.25Z"/><path class="cls-4" d="M47.71 70.59c.38 1.19 1.5 2.03 2.81 2.13 1.29.07 2.58.11 3.87.11 1.09 0 2.17-.03 3.26-.08.8-.05 1.4-.66 1.47-1.39l-1.14-8.62-1.14-8.62c-.22-.59-.79-.99-1.45-.99-.11 0-.21.01-.32.03-1.24.27-2.46.58-3.68.91.56-7.53 6.74-13.49 14.28-13.49s13.72 5.96 14.28 13.49c-1.22-.34-2.44-.64-3.68-.91-.11-.02-.22-.03-.32-.03-.66 0-1.23.4-1.45.99l-1.14 8.62-1.14 8.62c.07.73.66 1.34 1.46 1.39 1.09.05 2.17.08 3.26.08h.25c-.38 1.82-1.76 3.75-3.36 3.76h-3.81l-1.69-.53c-.05-.02-.11-.02-.16-.02h-5.59c-.2 0-.39.12-.48.3-.26.52-.39 1.1-.38 1.67 0 .58.13 1.17.38 1.7.09.18.28.3.48.3h5.59c.05 0 .11 0 .16-.02l1.7-.52h3.8c3.23-.01 5.95-3 6.34-6.71.22-.01.44 0 .65-.02 1.32-.1 2.43-.95 2.81-2.13.69-2.06 1.18-4.17 1.47-6.3.27-2.14.34-4.3.21-6.47-.05-1.09-.73-2.04-1.73-2.56v-.08c0-10.02-8.04-18.18-17.92-18.18S47.74 45.18 47.74 55.2v.08c-1 .52-1.68 1.48-1.73 2.56-.13 2.17-.06 4.33.21 6.47.29 2.13.78 4.24 1.47 6.3Zm33.84-6.78c-.25 1.81-.65 3.6-1.22 5.36-1.12.06-2.26.09-3.38.09h-.83l.79-6.03.79-6.03c1.38.35 2.74.74 4.05 1.17.09 1.82.03 3.67-.2 5.46Zm-31.97-5.46c1.34-.43 2.7-.83 4.05-1.17l.79 6.03.79 6.03h-.83c-1.14 0-2.3-.03-3.38-.09-.56-1.74-.98-3.54-1.22-5.33-.23-1.81-.3-3.64-.21-5.49ZM103.29 76.42c6.23 0 10.75-4.46 10.75-10.6 0-5.68-2.47-14.74-2.57-15.13-.17-.62-.66-1.11-1.29-1.26l-6.45-1.62c-.29-.07-.59-.07-.87 0l-6.45 1.62c-.63.16-1.12.64-1.29 1.26-.1.38-2.57 9.45-2.57 15.13 0 6.14 4.52 10.6 10.75 10.6Zm.89-24.8 4.09 1.03c.43 1.68 1.26 5.21 1.77 8.6l-5.86-1.06v-8.56Zm-5.88 1.03 4.08-1.03v8.57l-5.85 1.06c.5-3.39 1.34-6.92 1.77-8.6Zm-2.01 10.46 6.1-1.1v1.39c0 .49.4.9.9.9s.9-.4.9-.9v-1.39l6.1 1.1c.1.96.18 1.89.18 2.71 0 4.85-3.6 7.02-7.17 7.02s-7.17-2.17-7.17-7.02c0-.82.07-1.75.18-2.71ZM119.42 84.96H40.58c-1.98 0-3.58 1.6-3.58 3.58v26.88c0 1.98 1.6 3.58 3.58 3.58h78.84c1.98 0 3.58-1.6 3.58-3.58V88.54c0-1.98-1.6-3.58-3.58-3.58Zm.6 30.46c0 .33-.27.6-.6.6H40.58c-.33 0-.6-.27-.6-.6V88.54c0-.33.27-.6.6-.6h78.84c.33 0 .6.27.6.6v26.88Z"/><path class="cls-4" d="M45.96 93.02h4.42v4.27h-4.42zM53.03 93.02h4.42v4.27h-4.42zM60.11 93.02h4.42v4.27h-4.42zM67.18 93.02h4.42v4.27h-4.42zM74.25 93.02h4.42v4.27h-4.42zM81.33 93.02h4.42v4.27h-4.42zM88.4 93.02h4.42v4.27H88.4zM95.47 93.02h4.42v4.27h-4.42zM102.55 93.02h4.42v4.27h-4.42zM109.62 93.02h4.42v4.27h-4.42zM45.96 106.67h9.7v4.27h-9.7zM58.31 106.67h6.21v4.27h-6.21zM67.18 106.67h25.64v4.27H67.18zM95.47 106.67h6.21v4.27h-6.21zM104.34 106.67h9.7v4.27h-9.7zM45.96 99.85h7.96v4.27h-7.96zM56.57 99.85h4.42v4.27h-4.42zM63.64 99.85h4.42v4.27h-4.42zM70.72 99.85h4.42v4.27h-4.42zM77.79 99.85h4.42v4.27h-4.42zM84.86 99.85h4.42v4.27h-4.42zM91.94 99.85h4.42v4.27h-4.42zM99.01 99.85h4.42v4.27h-4.42zM106.08 99.85h7.96v4.27h-7.96z"/></g></svg>