<svg xmlns="http://www.w3.org/2000/svg" viewBox="0 0 160 160"><defs><linearGradient id="linear-gradient" x1="54.68" y1="10.44" x2="105.32" y2="149.56" gradientUnits="userSpaceOnUse"><stop offset="0" stop-color="#e6f1f2"/><stop offset="1" stop-color="#b8c7cc"/></linearGradient><style>.cls-4{fill:#0f0d14}</style></defs><g id="base"><path d="M80 2c43.01 0 78 34.99 78 78s-34.99 78-78 78S2 123.01 2 80 36.99 2 80 2m0-2C35.82 0 0 35.82 0 80s35.82 80 80 80 80-35.82 80-80S124.18 0 80 0Z" style="fill:#ece81a"/><circle cx="80" cy="80" r="74" style="fill:url(#linear-gradient)"/></g><g id="icons"><path style="fill:none" d="M32 32h96v96H32z"/><path class="cls-4" d="M117.86 65.89a7.334 7.334 0 0 0-6.56-4.05h-10.13v-4c0-4.05-3.28-7.33-7.33-7.33H37v46.17h13.48c1.51-4.27 5.58-7.33 10.36-7.33s8.84 3.07 10.36 7.33h23.28c.64-1.81 1.76-3.39 3.18-4.62.43-.37.88-.72 1.37-1.03.07-.05.15-.08.23-.13.42-.25.86-.47 1.32-.66.15-.06.3-.13.45-.19 1.19-.45 2.47-.7 3.82-.7 6.07 0 11 4.93 11 11 0 .63-.06 1.24-.17 1.83h5.67c2.03 0 3.67-1.64 3.67-3.67V80.18l-7.14-14.28ZM97.5 87.65a14.582 14.582 0 0 0-5.36 5.36H73.52c-2.59-4.47-7.41-7.33-12.69-7.33s-10.1 2.86-12.69 7.33h-7.48V80.18h56.83v7.48Zm0-25.81v16.5H40.67V54.17h53.17c2.02 0 3.67 1.64 3.67 3.67v4Zm23.83 36.67h-1.95c-.91-7.22-7.09-12.83-14.55-12.83-1.25 0-2.48.16-3.67.47V65.51h10.13c1.4 0 2.65.78 3.28 2.03l6.75 13.51v17.47Z"/><path class="cls-4" d="M60.83 91.17c-5.06 0-9.17 4.1-9.17 9.17s4.1 9.17 9.17 9.17 9.17-4.1 9.17-9.17-4.1-9.17-9.17-9.17Zm0 14.67c-3.03 0-5.5-2.47-5.5-5.5s2.47-5.5 5.5-5.5 5.5 2.47 5.5 5.5-2.47 5.5-5.5 5.5ZM104.83 91.17c-5.06 0-9.17 4.1-9.17 9.17s4.1 9.17 9.17 9.17 9.17-4.1 9.17-9.17-4.1-9.17-9.17-9.17Zm0 14.67c-3.03 0-5.5-2.47-5.5-5.5s2.47-5.5 5.5-5.5 5.5 2.47 5.5 5.5-2.47 5.5-5.5 5.5ZM71.67 98.5c.1.6.17 1.21.17 1.83s-.06 1.24-.17 1.83H94c-.1-.6-.17-1.21-.17-1.83s.06-1.24.17-1.83H71.67ZM111.3 67.33h-4.63v12.83h12.18l-5.91-11.82c-.31-.62-.95-1.01-1.64-1.01Z"/></g></svg>