<?xml version="1.0" encoding="UTF-8"?><svg xmlns="http://www.w3.org/2000/svg" xmlns:xlink="http://www.w3.org/1999/xlink" viewBox="0 0 160 160"><defs><style>.cls-1{fill:none;}.cls-2{fill:url(#linear-gradient);}.cls-3{fill:#ece81a;}.cls-4{fill:#0f0d14;}</style><linearGradient id="linear-gradient" x1="54.68" y1="10.44" x2="105.32" y2="149.56" gradientUnits="userSpaceOnUse"><stop offset="0" stop-color="#e6f1f2"/><stop offset="1" stop-color="#b8c7cc"/></linearGradient></defs><g id="base"><path class="cls-3" d="M80,2c43.01,0,78,34.99,78,78s-34.99,78-78,78S2,123.01,2,80,36.99,2,80,2m0-2C35.82,0,0,35.82,0,80s35.82,80,80,80,80-35.82,80-80S124.18,0,80,0h0Z"/><circle class="cls-2" cx="80" cy="80" r="74"/></g><g id="icons"><g><rect class="cls-1" x="32" y="32" width="96" height="96"/><g><path class="cls-4" d="M72.15,46.41c1.05,.82,2.3,1.34,3.62,1.34h.09c-2.28-3.25-5.99-5.38-10.2-5.38s-7.92,2.13-10.2,5.38h.09c1.33,0,2.58-.52,3.62-1.34,1.8-1.41,4.05-2.25,6.48-2.25s4.68,.84,6.48,2.25Z"/><path class="cls-4" d="M47.71,70.59c.38,1.19,1.5,2.03,2.81,2.13,1.29,.07,2.58,.11,3.87,.11,1.09,0,2.17-.03,3.26-.08,.8-.05,1.4-.66,1.47-1.39l-1.14-8.62-1.14-8.62c-.22-.59-.79-.99-1.45-.99-.11,0-.21,.01-.32,.03-1.24,.27-2.46,.58-3.68,.91,.56-7.53,6.74-13.49,14.28-13.49s13.72,5.96,14.28,13.49c-1.22-.34-2.44-.64-3.68-.91-.11-.02-.22-.03-.32-.03-.66,0-1.23,.4-1.45,.99l-1.14,8.62-1.14,8.62c.07,.73,.66,1.34,1.46,1.39,1.09,.05,2.17,.08,3.26,.08,.08,0,.17,0,.25,0-.38,1.82-1.76,3.75-3.36,3.76h-3.81l-1.69-.53c-.05-.02-.11-.02-.16-.02h-5.59c-.2,0-.39,.12-.48,.3-.26,.52-.39,1.1-.38,1.67,0,.58,.13,1.17,.38,1.7,.09,.18,.28,.3,.48,.3h5.59c.05,0,.11,0,.16-.02l1.7-.52h3.8c3.23-.01,5.95-3,6.34-6.71,.22-.01,.44,0,.65-.02,1.32-.1,2.43-.95,2.81-2.13,.69-2.06,1.18-4.17,1.47-6.3,.27-2.14,.34-4.3,.21-6.47-.05-1.09-.73-2.04-1.73-2.56,0-.03,0-.05,0-.08,0-10.02-8.04-18.18-17.92-18.18s-17.92,8.16-17.92,18.18c0,.03,0,.05,0,.08-1,.52-1.68,1.48-1.73,2.56-.13,2.17-.06,4.33,.21,6.47,.29,2.13,.78,4.24,1.47,6.3Zm33.84-6.78c-.25,1.81-.65,3.6-1.22,5.36-1.12,.06-2.26,.09-3.38,.09-.28,0-.55,0-.83,0l.79-6.03,.79-6.03c1.38,.35,2.74,.74,4.05,1.17,.09,1.82,.03,3.67-.2,5.46Zm-31.97-5.46c1.34-.43,2.7-.83,4.05-1.17l.79,6.03,.79,6.03c-.28,0-.55,0-.83,0-1.14,0-2.3-.03-3.38-.09-.56-1.74-.98-3.54-1.22-5.33-.23-1.81-.3-3.64-.21-5.49Z"/><path class="cls-4" d="M103.29,76.42c6.23,0,10.75-4.46,10.75-10.6,0-5.68-2.47-14.74-2.57-15.13-.17-.62-.66-1.11-1.29-1.26l-6.45-1.62c-.29-.07-.59-.07-.87,0l-6.45,1.62c-.63,.16-1.12,.64-1.29,1.26-.1,.38-2.57,9.45-2.57,15.13,0,6.14,4.52,10.6,10.75,10.6Zm.89-24.8l4.09,1.03c.43,1.68,1.26,5.21,1.77,8.6l-5.86-1.06v-.04s0-.01,0-.02v-8.5Zm-5.88,1.03l4.08-1.03v8.57l-5.85,1.06c.5-3.39,1.34-6.92,1.77-8.6Zm-2.01,10.46l6.1-1.1v1.39c0,.49,.4,.9,.9,.9s.9-.4,.9-.9v-1.39l6.1,1.1c.1,.96,.18,1.89,.18,2.71,0,4.85-3.6,7.02-7.17,7.02s-7.17-2.17-7.17-7.02c0-.82,.07-1.75,.18-2.71Z"/><path class="cls-4" d="M119.42,84.96H40.58c-1.98,0-3.58,1.6-3.58,3.58v26.88c0,1.98,1.6,3.58,3.58,3.58H119.42c1.98,0,3.58-1.6,3.58-3.58v-26.88c0-1.98-1.6-3.58-3.58-3.58Zm.6,30.46c0,.33-.27,.6-.6,.6H40.58c-.33,0-.6-.27-.6-.6v-26.88c0-.33,.27-.6,.6-.6H119.42c.33,0,.6,.27,.6,.6v26.88Z"/><rect class="cls-4" x="45.96" y="93.02" width="4.42" height="4.27"/><rect class="cls-4" x="53.03" y="93.02" width="4.42" height="4.27"/><rect class="cls-4" x="60.11" y="93.02" width="4.42" height="4.27"/><rect class="cls-4" x="67.18" y="93.02" width="4.42" height="4.27"/><rect class="cls-4" x="74.25" y="93.02" width="4.42" height="4.27"/><rect class="cls-4" x="81.33" y="93.02" width="4.42" height="4.27"/><rect class="cls-4" x="88.4" y="93.02" width="4.42" height="4.27"/><rect class="cls-4" x="95.47" y="93.02" width="4.42" height="4.27"/><rect class="cls-4" x="102.55" y="93.02" width="4.42" height="4.27"/><rect class="cls-4" x="109.62" y="93.02" width="4.42" height="4.27"/><rect class="cls-4" x="45.96" y="106.67" width="9.7" height="4.27"/><rect class="cls-4" x="58.31" y="106.67" width="6.21" height="4.27"/><rect class="cls-4" x="67.18" y="106.67" width="25.64" height="4.27"/><rect class="cls-4" x="95.47" y="106.67" width="6.21" height="4.27"/><rect class="cls-4" x="104.34" y="106.67" width="9.7" height="4.27"/><rect class="cls-4" x="45.96" y="99.85" width="7.96" height="4.27"/><rect class="cls-4" x="56.57" y="99.85" width="4.42" height="4.27"/><rect class="cls-4" x="63.64" y="99.85" width="4.42" height="4.27"/><rect class="cls-4" x="70.72" y="99.85" width="4.42" height="4.27"/><rect class="cls-4" x="77.79" y="99.85" width="4.42" height="4.27"/><rect class="cls-4" x="84.86" y="99.85" width="4.42" height="4.27"/><rect class="cls-4" x="91.94" y="99.85" width="4.42" height="4.27"/><rect class="cls-4" x="99.01" y="99.85" width="4.42" height="4.27"/><rect class="cls-4" x="106.08" y="99.85" width="7.96" height="4.27"/></g></g></g></svg>